<svg width="36" height="36" viewBox="0 0 36 36" fill="none" xmlns="http://www.w3.org/2000/svg">
<g clip-path="url(#clip0_101_217)">
<path d="M29.8125 18C31.3658 18 32.625 16.7408 32.625 15.1875C32.625 13.6342 31.3658 12.375 29.8125 12.375C28.2592 12.375 27 13.6342 27 15.1875C27 16.7408 28.2592 18 29.8125 18Z" stroke="#fce7f3" stroke-width="2.25" stroke-linecap="round" stroke-linejoin="round"/>
<path d="M6.1875 18C7.7408 18 9 16.7408 9 15.1875C9 13.6342 7.7408 12.375 6.1875 12.375C4.6342 12.375 3.375 13.6342 3.375 15.1875C3.375 16.7408 4.6342 18 6.1875 18Z" stroke="#fce7f3" stroke-width="2.25" stroke-linecap="round" stroke-linejoin="round"/>
<path d="M12.9375 11.25C14.4908 11.25 15.75 9.9908 15.75 8.4375C15.75 6.8842 14.4908 5.625 12.9375 5.625C11.3842 5.625 10.125 6.8842 10.125 8.4375C10.125 9.9908 11.3842 11.25 12.9375 11.25Z" stroke="#fce7f3" stroke-width="2.25" stroke-linecap="round" stroke-linejoin="round"/>
<path d="M23.0625 11.25C24.6158 11.25 25.875 9.9908 25.875 8.4375C25.875 6.8842 24.6158 5.625 23.0625 5.625C21.5092 5.625 20.25 6.8842 20.25 8.4375C20.25 9.9908 21.5092 11.25 23.0625 11.25Z" stroke="#fce7f3" stroke-width="2.25" stroke-linecap="round" stroke-linejoin="round"/>
<path d="M18 14.625C16.9029 14.6254 15.8357 14.9822 14.9589 15.6416C14.0822 16.301 13.4433 17.2274 13.1386 18.2812C12.6883 19.8313 11.6435 21.1405 10.2319 21.9234C9.20713 22.4698 8.43329 23.3912 8.07217 24.4949C7.71104 25.5987 7.7906 26.7993 8.2942 27.8457C8.7978 28.8921 9.68645 29.7034 10.7743 30.1097C11.8622 30.5161 13.0651 30.4862 14.1314 30.0263C16.6094 29.0102 19.3878 29.0102 21.8658 30.0263C22.9321 30.4862 24.135 30.5161 25.2229 30.1097C26.3107 29.7034 27.1994 28.8921 27.703 27.8457C28.2066 26.7993 28.2861 25.5987 27.925 24.4949C27.5639 23.3912 26.7901 22.4698 25.7653 21.9234C24.3545 21.1403 23.3106 19.8311 22.8614 18.2812C22.5567 17.2274 21.9178 16.301 21.0411 15.6416C20.1643 14.9822 19.0971 14.6254 18 14.625Z" stroke="#fce7f3" stroke-width="2.25" stroke-linecap="round" stroke-linejoin="round"/>
</g>
<defs>
<clipPath id="clip0_101_217">
<rect width="36" height="36" fill="white"/>
</clipPath>
</defs>
</svg>
