<svg viewBox="165.0270270270271 172.46249999999986 825.1351351351352 1188.0750000000003" xmlns="http://www.w3.org/2000/svg" overflow="visible" xmlns:xlink="http://www.w3.org/1999/xlink" width="825.1351351351352px" height="1188.0750000000003px"><g id="Master/Character/Bust" stroke="none" stroke-width="1" fill="none" fill-rule="evenodd"><g id="Body" transform="translate(147.000000, 639.000000) scale(1 1)"><g id="Body/Blazer Black Tee" stroke="none" stroke-width="1" fill="none" fill-rule="evenodd"><path d="M735.554827,227.830846 C721.673827,162.068846 672.445327,111.039046 606.237327,85.6180462 C593.510842,78.4200005 581.174315,47.5341921 564.070668,41.877879 C561.328952,40.9711714 565.65651,48.1871104 564.070668,48.6180462 C558.414208,50.1551301 552.076298,50.3156366 545.831031,44.7648132 C534.669338,34.8442468 531.167613,5.86101292 524.381248,-7.23844877 C488.590248,-76.3244488 399.227827,-49.2931538 387.255827,27.0798462 C378.908197,32.520741 367.107734,37.3137447 358.021128,41.6981656 C348.664352,46.2129474 340.433923,57.1482465 330.791376,61.0578428 C322.187776,64.5461953 308.011514,62.0749875 299.342116,65.1160554 C259.468039,79.1031601 225.695912,96.7523794 199.218827,132.511846 C193.639827,140.053846 187.350827,149.325846 182.273827,156.944846 C156.099827,187.075846 137.919827,220.847846 121.175827,257.080846 C74.3298273,363.431846 61.5878273,481.185846 50.1558273,595.771846 C50.4158273,615.820846 37.1118273,671.414846 56.7888273,681.026846 C55.6128273,682.245846 56.0388273,684.694846 58.2208273,684.673846 C108.113827,684.169846 157.890827,688.634846 207.009827,697.315846 C230.708827,701.504846 254.280827,707.248846 278.420827,708.192846 C328.531827,707.846846 378.462827,699.449846 428.507827,707.395846 C488.670056,707.395846 561.785612,705.642806 628.715338,703.06989 C691.267754,700.665247 754.155368,706.096156 815.932827,695.458846 C820.822827,694.684846 823.210827,688.720846 822.185827,684.446846 C814.937827,658.036846 811.379827,630.854846 807.312827,603.823846 C808.122827,586.485846 806.673827,568.385846 800.259827,552.236846 C783.501827,443.218846 762.012827,334.911846 735.554827,227.830846 Z" id="Skin" fill="#edb98a"/><path d="M564.070764,49.0177925 C565.656606,48.5868566 561.329048,41.3709176 564.070764,42.2776253 C581.174411,47.9339383 593.510938,78.8197467 606.237423,86.0177925 C672.445423,111.438792 721.673923,162.468592 735.554923,228.230592 C762.012923,335.311592 783.501923,443.618592 800.259923,552.636592 C806.673923,568.785592 808.122923,586.885592 807.312923,604.223592 L807.951463,608.492765 C811.764671,634.113717 815.319397,659.826592 822.185923,684.846592 C823.210923,689.120592 820.822923,695.084592 815.932923,695.858592 C754.85748,706.375024 692.69697,701.186348 630.848031,703.39066 L617.956796,703.874165 C554.02356,706.224557 485.4615,707.795592 428.507923,707.795592 C378.462923,699.849592 328.531923,708.246592 278.420923,708.592592 C254.280923,707.648592 230.708923,701.904592 207.009923,697.715592 C157.890923,689.034592 108.113923,684.569592 58.2209232,685.073592 C56.0389232,685.094592 55.6129232,682.645592 56.7889232,681.426592 C37.1119232,671.814592 50.4159232,616.220592 50.1559232,596.171592 L51.1892257,585.850692 C62.3831368,474.530615 75.7353032,360.641062 121.175923,257.480592 L122.536821,254.548198 C138.908465,219.424739 156.807329,186.661241 182.273923,157.344592 L183.831461,155.012685 C188.601623,147.888492 194.197823,139.699392 199.218923,132.911592 C225.696008,97.1521256 259.468135,79.5029063 299.342212,65.5158017 C308.01161,62.4747337 322.187872,64.9459415 330.791472,61.4575891 C339.810065,57.8009766 347.593379,47.9984878 356.218298,43.0513536 L356.218327,79.9515681 L481.019592,202.890134 L551.802936,94.3540389 L559.001545,49.9017146 C560.735935,49.7929034 562.43195,49.463123 564.070764,49.0177925 Z" id="Jacket" fill="#8FA7DF"/><path d="M715.367527,371.127646 C714.047527,377.537646 712.197527,383.947646 709.737527,390.018646 C707.367527,395.877646 703.797527,401.127646 701.338527,406.917646 C701.008527,407.697646 700.468527,408.287646 699.817527,408.737646 L700.020402,410.312646 L700.020402,410.312646 L700.207527,411.887646 C701.434099,422.516218 702.813486,433.115401 704.008151,443.742503 L704.588527,449.058646 C706.937527,471.247646 710.647527,493.327646 713.527527,515.457646 C716.347527,537.127646 719.218527,558.797646 722.287527,580.437646 C725.457527,602.747646 728.687527,625.027646 732.457527,647.247646 C734.049194,656.631813 735.710305,666.008341 737.440861,675.37723 L738.777527,682.547646 C752.537527,685.857646 756.297527,705.037646 742.287527,712.117646 C735.928527,715.317646 727.758527,714.547646 722.517527,709.518646 C717.071287,704.277535 716.8452,694.825814 715.581216,687.726914 L714.363561,681.130206 C705.252238,631.526622 697.344487,581.351646 693.647527,531.047646 C692.697527,518.058646 691.897527,505.058646 691.377527,492.047646 C690.883444,479.810146 691.119562,467.573487 690.9305,455.335356 L690.867527,451.997646 C690.578527,438.947646 690.817527,425.917646 691.157527,412.867646 C691.197527,411.277646 691.267527,409.687646 691.347527,408.087646 C690.888527,407.547646 690.557527,406.907646 690.418527,406.287646 L690.237527,405.467646 C689.787527,403.357646 690.297527,400.887646 691.918527,399.377646 C692.617527,390.487646 693.537527,381.607646 693.787527,372.727646 C693.807527,371.997646 694.857527,372.018646 694.918527,372.727646 C695.508527,380.287646 696.687527,387.867646 697.867527,395.437646 C705.457527,389.337646 711.067527,379.277646 714.377527,370.857646 C714.617527,370.247646 715.508527,370.467646 715.367527,371.127646 Z M535.787327,17.7070462 C537.047327,23.4670462 539.537327,28.6380462 542.877327,33.4480462 C544.468327,35.7480462 546.277327,37.8880462 548.447327,39.6780462 C550.308327,41.2070462 552.428327,42.2070462 554.407327,43.5380462 C557.287327,43.0870462 560.297327,44.1780462 562.317327,46.2970462 L561.998327,43.1980462 C561.897327,42.1980462 563.558327,41.9980462 563.748327,42.9670462 C572.496952,87.0887129 580.475956,131.23885 587.382571,175.679738 L590.409962,195.305515 L593.258526,213.729991 C597.98819,244.431683 602.563142,275.12112 606.008327,306.047046 C610.598327,347.318046 614.457327,388.698046 617.277327,430.137046 C620.107327,471.868046 621.848327,513.627046 623.088327,555.438046 C623.397327,565.978046 623.728327,576.508046 624.047327,587.047046 L626.183359,574.446374 C628.31514,561.843046 630.405577,549.228046 632.197327,536.568046 C638.627327,491.258046 643.768327,445.627046 646.277327,399.928046 C648.578327,358.108046 647.808327,315.458046 637.168327,274.717046 C634.487327,264.467046 631.207327,254.377046 627.248327,244.547046 C623.407327,234.988046 618.168327,226.127046 614.037327,216.708046 C609.237327,205.748046 607.797327,195.408046 610.268327,183.608046 C612.428327,173.328046 616.218327,163.658046 616.897327,153.078046 C618.168327,133.438046 611.777327,114.417046 602.748327,97.2280462 C600.367327,92.6980462 597.857327,88.2280462 595.237327,83.7970462 C587.308327,70.4080462 578.367327,57.5070462 569.088327,45.1380462 C568.588327,44.4780462 569.647327,43.7480462 570.188327,44.2880462 C578.647327,52.6480462 587.897327,60.8680462 595.508327,69.9980462 C599.207327,74.4380462 602.817327,78.9670462 606.237327,83.6180462 C643.758327,89.8880462 675.998327,113.257046 698.037327,144.118046 C723.047327,179.138046 735.697327,221.288046 745.058327,262.797046 C755.468327,308.928046 764.248327,355.478046 773.598327,401.837046 C783.277327,449.808046 792.907327,497.778046 802.647327,545.738046 C807.487327,569.547046 812.328327,593.358046 817.157327,617.178046 C819.607327,629.238046 822.178327,641.268046 824.867327,653.288046 C826.248327,659.448046 827.728327,665.598046 829.008327,671.778046 C830.447327,678.748046 829.107327,683.207046 824.388327,688.328046 C822.647327,690.228046 819.897327,690.198046 817.737327,689.188046 L817.062093,688.870113 L816.409471,688.555003 C813.73671,687.24147 811.641258,685.880322 809.978327,682.957046 C808.147327,679.748046 807.857327,676.188046 807.228327,672.618046 C806.067327,666.047046 804.918327,659.478046 803.758327,652.898046 C802.025077,643.058046 800.140515,633.246171 798.222343,623.436687 L788.598577,574.413796 C786.032327,561.342546 783.462327,548.272546 780.877327,535.208046 C771.647327,488.488046 762.407327,441.778046 753.168327,395.068046 C744.297327,350.217046 736.447327,305.058046 726.348327,260.467046 L725.774148,257.954967 L725.19021,255.446244 C716.159567,217.005928 703.541911,179.821796 680.647327,147.248046 C663.027327,122.198046 638.558327,99.8280462 609.737327,88.5070462 C611.768327,91.4280462 613.718327,94.4080462 615.578327,97.4480462 C627.258327,116.528046 635.787327,139.178046 633.787327,161.898046 C632.808327,172.998046 628.588327,183.908046 628.987327,195.098046 C629.357327,205.038046 635.508327,213.768046 639.758327,222.417046 C649.407327,242.018046 656.388327,262.848046 660.888327,284.217046 C669.918327,327.127046 669.888327,371.278046 666.777327,414.837046 C663.397327,462.188046 656.978327,509.528046 649.668327,556.417046 C645.918327,580.467046 640.928327,604.318046 637.107327,628.328046 C635.218327,640.167046 632.647327,651.978046 630.397327,663.758046 L629.324994,669.386083 C628.724624,672.509478 628.101722,675.622791 627.382216,678.703045 L626.938327,680.547046 L626.938327,680.877046 C626.918327,683.148046 626.297327,685.028046 625.297327,686.528046 C623.928327,690.917046 622.228327,695.198046 619.968327,699.308046 C618.808327,701.408046 617.127327,702.587046 615.297327,703.018046 C613.457327,707.228046 609.287327,710.467046 604.308327,710.448294 L538.817327,710.198046 C500.777327,710.047046 462.737327,709.797046 424.697327,709.587046 C415.098327,709.538046 405.508327,709.358046 395.918327,709.108046 C386.928327,708.858046 378.308327,707.778046 369.418327,706.658046 C359.377327,705.398046 353.938327,698.288046 355.438327,688.258046 C355.768327,686.047046 356.127327,683.848046 356.468327,681.648046 C354.468327,682.308046 352.088327,681.998046 350.478327,680.428046 L348.968883,678.950775 C346.876525,676.880892 345.005137,674.848332 343.678327,672.087046 C342.308327,669.248046 341.197327,666.248046 339.987327,663.348046 C337.377327,657.108046 334.838327,650.848046 332.367327,644.558046 C327.418327,631.978046 322.468327,619.348046 317.867327,606.637046 C308.758327,581.467046 300.697327,555.917046 293.688327,530.078046 C281.188327,483.978046 272.147327,436.988046 266.447327,389.578046 L265.084545,378.278536 L264.688294,374.940794 C262.526802,356.565177 260.707705,337.904293 261.567327,319.568046 C262.098327,308.087046 263.877327,296.518046 268.168327,285.797046 C272.127327,275.908046 278.237327,267.448046 284.047327,258.608046 L284.712186,257.587624 L285.3806,256.542324 C290.461737,248.513112 294.504762,240.118806 294.707327,230.368046 C294.912625,220.472911 292.029863,210.842845 288.806657,201.579169 L288.003329,199.294562 L287.464161,197.782446 C280.607172,178.636621 272.803777,159.761546 275.377327,138.928046 C279.178327,108.248046 297.777327,83.5180462 321.178327,64.4480462 C300.367327,68.5680462 279.768327,76.7070462 261.588327,87.0280462 C240.117327,99.2280462 220.787327,115.328046 204.117327,133.498046 C172.617327,167.837046 150.127327,209.038046 131.718327,251.578046 C112.447327,296.098046 98.1573273,342.748046 87.3883273,390.008046 C76.5583273,437.538046 69.3083273,485.828046 64.3573273,534.308046 C61.8883273,558.438046 59.9473273,582.627046 58.3383273,606.828046 C57.5183273,619.228046 56.8983273,631.648046 55.9383273,644.028046 C54.9783273,656.398046 54.5473273,668.957046 51.5273273,680.998046 C50.1173273,686.608046 40.6073273,687.178046 39.5883273,680.998046 C37.3268567,667.196282 37.9588756,652.923496 38.5900323,638.947731 L38.6473273,637.678046 C39.2683273,623.758046 40.0783273,609.848046 41.0373273,595.938046 C42.9983273,567.508046 45.6173273,539.118046 49.0373273,510.818046 C61.0273273,411.478046 83.1383273,312.658046 126.508327,221.978046 C146.928327,179.268046 173.138327,137.768046 209.598327,106.928046 C226.957327,92.2570462 246.527327,80.5470462 267.617327,72.0680462 C286.478327,64.4780462 305.638327,60.8880462 325.678327,60.8980462 C335.728327,53.1980462 346.518327,46.4880462 357.297327,40.7570462 C357.947327,40.4080462 358.627327,41.2480462 358.088327,41.7880462 C357.808327,42.0580462 357.537327,42.3370462 357.258327,42.5980462 C358.478327,42.6780462 359.737327,43.2480462 360.867327,44.4380462 C364.828327,48.5870462 368.168327,53.7780462 371.157327,59.1670462 C375.707327,64.8480462 380.047327,70.7170462 384.588327,76.3370462 C391.857327,85.3370462 399.297327,94.2070462 406.828327,103.007046 C419.475696,117.796415 432.53502,132.305761 446.153396,146.231539 L448.428327,148.547046 C455.487327,155.698046 462.638327,164.257046 470.987327,169.917046 L471.433089,170.213549 C474.955606,172.508453 477.453487,172.925246 480.457327,169.498046 C483.188256,166.378046 485.461332,162.757944 487.797784,159.318298 L488.338327,158.528046 C500.268327,141.198046 511.328327,123.228046 521.338327,104.728046 C525.901055,96.3089553 530.241468,87.7675504 534.359567,79.13163 L535.588327,76.5380462 C537.828327,71.7780462 540.258327,67.1080462 542.107327,62.2070462 C542.537327,61.0580462 542.957327,59.9080462 543.367327,58.7680462 C537.067327,54.6380462 532.188327,45.6980462 530.418327,38.6980462 C528.578327,31.4280462 529.508327,23.9670462 532.787327,17.3180462 C533.407327,16.0680462 535.487327,16.3770462 535.787327,17.7070462 Z M224.99925,313.137246 C224.127427,340.778246 223.598427,368.448246 222.297427,396.068246 L221.848427,405.497246 C223.877427,407.758246 225.067427,410.367246 224.117427,413.948246 C223.748427,415.318246 222.657427,416.558246 221.297427,417.018246 L220.873413,425.785121 C218.943538,465.229875 216.68122,504.592729 212.547427,543.938246 C207.377427,593.178246 201.397427,642.337246 195.428427,691.488246 C194.578427,698.448246 189.737427,703.967246 182.207427,702.948246 C174.588427,701.917246 171.498427,695.287246 172.498427,688.377246 C176.428427,661.268246 180.207427,634.137246 183.518427,606.938246 L187.288338,575.949408 C192.01556,537.212315 196.853954,498.481194 202.428427,459.867246 C204.758427,443.728246 207.178427,427.598246 209.607427,411.467246 L208.758427,410.367246 C205.287427,405.858246 201.697427,401.448246 198.147427,397.008246 C191.328427,388.448246 184.598427,379.957246 178.348427,370.997246 C178.037427,370.547246 178.668427,369.887246 179.117427,370.228246 C187.877427,376.698246 196.168427,383.617246 204.508427,390.648246 L211.808427,396.827246 C216.008427,368.957246 220.168427,341.077246 223.877427,313.137246 C223.968427,312.438246 225.018427,312.387246 224.99925,313.137246 Z M351.008327,48.6180462 C345.737327,53.5870462 340.348327,58.4480462 335.037327,63.3880462 L333.092013,65.2061167 L331.155696,67.0325552 C321.822062,75.8837487 312.87957,85.0974402 305.428327,95.6780462 C291.748327,115.108046 283.598327,138.797046 289.287327,162.518046 C294.008327,182.167046 304.838327,199.978046 307.748327,220.118046 C309.207327,230.208046 308.498327,240.348046 304.697327,249.877046 C300.817327,259.598046 294.617327,267.928046 289.047327,276.698046 C276.947327,295.758046 275.297327,316.678046 276.498327,338.758046 C277.758327,361.818046 280.407327,384.887046 283.678327,407.738046 C290.297327,454.038046 300.277327,499.858046 313.487327,544.728046 C320.098327,567.198046 327.907327,589.188046 335.678327,611.268046 C339.547327,622.258046 344.058327,632.988046 348.707327,643.667046 C351.157327,649.288046 353.668327,654.877046 356.218327,660.457046 C355.277327,652.578046 355.277327,644.488046 354.817327,636.658046 C354.157327,625.438046 353.317327,614.238046 352.547327,603.028046 C350.978327,580.278046 349.578327,557.508046 348.328327,534.738046 C343.898327,453.538046 340.638327,372.268046 340.877327,290.938046 C340.998327,250.268046 341.828327,209.598046 343.578327,168.967046 C344.398727,149.833713 345.987447,130.718673 347.423316,111.61217 L347.728327,107.518046 C348.998327,90.3680462 350.518327,73.1780462 353.127327,56.1780462 C352.354883,54.4349351 351.684364,52.6697006 351.186707,50.8591656 L351.008327,50.1780462 L351.138327,50.1980462 C351.018327,49.6670462 350.978327,49.1380462 351.008327,48.6180462 Z M396.588527,-21.2621538 C396.697527,-21.7321538 397.367527,-21.6921538 397.487527,-21.2621538 C400.457527,-11.2621538 399.407527,-0.262153771 396.848527,9.79784623 C395.468527,15.2478462 393.508527,20.5378462 391.138527,25.6378462 L390.309157,27.4226118 C388.278519,31.7660189 385.992073,36.2411796 382.037527,38.9478462 C380.388527,40.0778462 377.437527,40.1478462 375.787527,38.9478462 L374.946046,38.3093277 C374.807527,38.2011796 374.670861,38.0911796 374.537527,37.9778462 C372.998527,36.6878462 372.237527,33.8378462 372.947527,31.9578462 C374.777527,27.1078462 378.928527,23.5478462 381.797527,19.2278462 C384.338527,15.3878462 386.588527,11.3378462 388.457527,7.12784623 C392.487527,-1.98215377 394.297527,-11.6521538 396.588527,-21.2621538 Z" id="Ink" fill="#000"/></g></g><g id="Head" transform="translate(372.000000, 180.000000) scale(0.9978902953586498 1)"><g id="Head/Pomp" stroke="none" stroke-width="1" fill="none" fill-rule="evenodd"><path d="M385.414655,173.221564 C381.553655,149.862425 394.225655,145.015818 385.414655,122.81092 C365.832655,81.6673118 312.467655,83.4400723 273.307655,80.2766375 C229.629655,78.6026407 185.421655,84.3688512 145.155655,101.874987 C135.537655,106.055988 126.286655,110.973229 117.418655,116.559869 C109.750655,121.391315 110.804655,130.577347 115.639655,135.588364 C80.7746553,184.960294 100.715655,251.231811 72.8966553,303.201529 C67.7576553,312.491313 60.9606553,320.821392 56.4936553,330.487277 C49.7036553,345.18014 49.2686553,366.232794 64.6666553,375.99046 C86.3536553,387.630623 98.4556553,364.583738 109.111655,397.992843 C162.329655,514.483264 269.328655,521.043576 370.904655,460.309816 C379.692655,455.421506 388.661655,449.896718 395.297655,442.217084 C410.360655,425.265622 408.586655,401.427629 408.919655,380.259251 C409.105655,367.853918 409.136655,355.446589 409.015655,343.03926 C408.541655,292.781448 391.884655,223.065366 385.414655,173.221564 Z" id="Skin" fill="#edb98a"/><path d="M169.0666,33.5077 C230.3966,5.6877 299.9576,-4.8623 366.8576,2.0577 C399.878278,5.46790339 432.464081,12.784251 463.474997,24.6688994 L466.193261,25.7193843 C473.848458,28.6657097 482.100367,31.5902581 487.9176,37.5877 C494.6886,44.5577 496.5876,55.0977 491.7476,63.7077 C487.9876,70.3977 481.2276,75.1967 474.0176,77.7577 C476.5576,79.8377 478.9676,82.1577 481.2276,84.7477 C485.0376,89.0877 485.3276,95.2767 481.2276,99.5577 C473.3276,107.8077 463.0776,113.7767 452.0376,116.6377 C453.2776,122.6277 452.6076,129.2577 449.9476,135.2277 C442.3147,152.3646 420.813385,154.40698 404.267456,153.389458 L403.7676,153.3577 L402.8476,163.8877 C402.3576,169.4977 398.9976,173.8477 393.2976,174.7077 C393.0976,174.7377 392.8966,174.7577 392.6976,174.7767 C401.7176,207.3977 407.1676,241.0267 412.1976,274.4577 C414.8256,291.9087 417.1782,309.4002 419.43036,326.90304 L420.1776,332.7377 C422.5776,351.6077 425.5776,370.6677 426.6176,389.6777 C427.5476,406.9277 424.2576,423.3977 413.6276,437.3177 C404.0876,449.7977 391.0776,459.1477 377.0876,466.0877 C345.4776,481.7767 312.2076,493.4577 277.2476,498.8777 L274.916235,499.236444 C261.421445,501.296219 247.517418,503.032245 234.1676,499.2977 C222.4386,496.0177 210.1376,487.5577 212.7876,473.9677 C213.6776,469.3777 220.0976,469.1777 222.2976,472.7277 L222.80543,473.541144 C225.443517,477.726861 228.33463,481.617033 232.9386,483.7767 C238.3276,486.3177 244.5776,487.0267 250.4676,487.0977 C266.9176,487.2877 284.0476,483.1877 299.8876,479.0777 C329.4676,471.3987 359.8476,458.8777 384.0776,439.9077 C394.3876,431.8477 402.6676,421.7677 405.5876,408.7977 C409.1976,392.8077 405.8776,375.3277 404.2376,359.2577 C400.8626,326.098325 396.845998,293.000473 392.608022,259.939426 L391.7576,253.3277 C388.1886,225.6877 384.4386,198.0377 382.6576,170.2377 C381.9176,169.2277 381.4176,168.0777 381.2176,166.8177 L380.9386,165.0077 L380.9386,165.0077 C380.6976,163.4577 380.6576,162.0377 380.8276,160.7277 C380.8376,155.7077 380.9776,150.7177 381.2676,145.6967 C381.3166,144.7977 381.3576,143.8977 381.3876,143.0077 C376.1676,144.1577 370.9076,145.0877 365.6276,145.8777 C328.5076,151.4677 290.8076,152.8677 253.3876,150.0877 C234.7176,148.6967 216.1886,146.3077 197.7176,143.3177 C188.3166,141.7977 178.9476,140.1177 169.6076,138.2377 C162.8576,136.8877 156.2476,135.0577 149.6076,133.3377 C142.7576,143.3077 139.0576,155.5777 139.7776,167.6277 C140.5876,181.3777 149.7476,193.8477 147.1776,207.8977 C144.7656,221.0467 133.5003,225.1237 122.378289,228.380251 L117.647948,229.746916 C114.008809,230.809438 111.366323,231.834509 110.7076,236.2077 C109.5776,243.7177 110.9676,252.1677 111.2576,259.7177 C111.6076,268.6477 112.0666,277.5777 112.2776,286.5077 C112.3876,291.1277 112.5666,295.7677 112.5576,300.3877 C112.5476,303.6677 112.0576,305.9077 110.7876,308.0267 C111.7676,309.2577 112.6466,310.5877 113.4276,311.9977 C113.6776,312.4577 113.0576,312.9467 112.6886,312.5677 C111.6976,311.5377 110.6466,310.6077 109.5376,309.7767 C108.9776,310.4677 108.3276,311.1677 107.5666,311.9177 L107.5076,311.8377 L107.5076,311.8377 C105.1276,314.2077 101.3476,314.4377 98.3966,311.9177 L97.622266,311.246807 C95.462361,309.353484 93.9782897,307.776666 93.3776,304.6477 C93.3476,304.4877 93.3166,304.3277 93.2976,304.1677 C87.8076,303.9777 82.2276,305.2767 77.2876,308.0077 C69.4576,312.3377 63.9476,318.5077 60.6886,326.1277 C61.9876,327.6477 63.5076,329.0077 65.2776,330.1477 C65.5276,330.3177 65.3076,330.6877 65.0376,330.5577 C63.2276,329.7077 61.6076,328.6577 60.1576,327.4277 C58.9876,330.4277 58.1676,333.6477 57.6676,337.0577 C55.9076,349.0977 59.0476,363.8077 69.9276,370.6677 C74.6376,373.6377 80.0176,375.2477 85.5976,375.2677 C88.3166,375.2767 90.6676,374.8177 93.3076,374.1677 C95.0976,373.7277 96.8776,373.0877 98.7476,373.0877 C100.3476,373.0877 101.8276,373.4877 103.1976,374.2877 L102.817638,374.320971 C101.894271,374.407638 102.071886,374.4467 103.3576,374.4467 C107.3576,374.6177 109.6466,378.6777 107.8076,382.2077 L107.566306,382.753053 C107.515498,382.863292 107.472457,382.954271 107.4386,383.0267 L107.293288,383.963052 C107.2788,384.0521 107.2636,384.1437 107.2476,384.2377 L107.192044,384.42733 C107.182044,384.4577 107.170933,384.4877 107.1576,384.5177 L113.156638,393.666016 C120.511886,404.857394 128.031171,416.005557 136.5876,426.2277 C142.5876,433.3977 148.9476,440.4277 155.6676,446.9377 C161.7076,452.7877 168.9476,455.6077 175.7876,460.2077 C179.4386,462.6477 180.5076,467.7577 177.1886,471.0477 C167.4476,480.7177 153.6576,473.0377 145.6676,465.1777 C138.1076,457.7277 131.5776,448.7677 125.9476,439.7977 C115.9576,423.8477 108.0076,406.8877 104.5276,388.4777 C103.0776,389.8077 101.2276,390.6377 99.3576,391.2877 C95.6076,392.5877 91.4776,393.1277 87.5176,393.2677 C79.9276,393.5177 72.3276,391.6777 65.4976,388.4177 C37.7076,375.1677 33.6276,335.4877 50.6176,312.0877 C48.3266909,305.444064 47.0471661,298.23551 45.65706,292.088454 L45.0246343,289.340608 C37.9999759,258.647793 33.2818,226.33292 45.7376,196.2577 C47.3376,192.3777 49.1376,188.5977 51.2676,184.9777 C52.9776,182.0677 55.9176,178.9677 56.7276,175.6577 C58.5276,168.3877 47.4176,160.7477 44.1776,154.9777 C40.3676,148.2077 39.8276,140.2177 45.0176,134.0267 C45.6776,133.2477 46.3966,132.5267 47.1776,131.8977 C42.2576,122.9777 42.0276,111.7577 48.5076,102.9577 C52.7676,97.1577 59.2676,93.0977 66.3676,91.8677 C70.7076,91.1177 75.9276,91.3977 80.6976,92.7377 C106.8166,68.4877 136.6176,48.2277 169.0666,33.5077 Z M68.7671,336.9378 C75.7381,330.7878 83.4381,327.5678 92.9381,328.3778 C102.4881,329.1968 113.9881,333.1478 119.5971,341.3378 C124.0281,347.8078 114.9981,357.2978 108.4981,352.4378 C102.5781,348.0078 98.6271,343.0078 91.2781,340.6278 C84.6771,338.4978 76.5071,337.1278 69.5971,338.3478 C68.8371,338.4778 68.0781,337.5378 68.7671,336.9378 Z" id="Ink" fill="#000"/></g></g><g id="Face" transform="translate(531.000000, 366.000000) scale(1 1)" fill="#000"><g id="Face/Suspicious" stroke="none" stroke-width="1" fill="none" fill-rule="evenodd"><path d="M155.8839,250.9317 C163.4429,249.8797 171.5709,245.5987 178.7909,249.0777 C182.1659,250.7037 183.7679,256.2647 181.4859,259.3557 C178.0009,264.0767 174.4029,264.8577 168.7459,265.3117 C164.5049,265.6517 160.2409,265.6767 156.0109,265.1877 L154.934929,265.056029 C147.387247,264.081793 139.542445,261.975155 133.6949,256.9027 C132.4989,255.8647 133.1119,253.6227 134.6469,253.2987 C141.5909,251.8377 148.8549,251.9107 155.8839,250.9317 Z M146.9873,233.5262 C146.9843,233.4652 147.0773,233.4652 147.0803,233.5262 C147.2633,237.8462 148.4773,241.8512 150.7213,245.5472 C150.7523,245.6002 150.6713,245.6472 150.6403,245.5952 C148.3953,241.8962 147.1703,237.8502 146.9873,233.5262 Z M170.814304,144.367155 C178.365682,148.9572 189.871664,159.660291 181.748119,171.039573 C172.185929,181.073062 158.418535,169.568982 151.634201,164.366134 C145.343449,160.333898 138.275437,170.704507 144.112,175.412823 C193.135736,211.708059 213.030606,145.567387 174.633685,138.970386 C170.406047,138.243425 168.835891,142.947174 170.814304,144.367155 Z M209.464,93.0002 C211.237197,93.0002 212.933146,93.6020668 214.477662,94.7157521 C215.997787,95.8118502 217.37393,97.4115833 218.520105,99.4068237 C220.689089,103.182554 222.045,108.395834 222.045,114.1602 C222.045,119.924566 220.689089,125.137846 218.520105,128.913576 C217.37393,130.908817 215.997787,132.50855 214.477662,133.604648 C212.933146,134.718333 211.237197,135.3202 209.464,135.3202 C207.690803,135.3202 205.994854,134.718333 204.450338,133.604648 C202.930213,132.50855 201.55407,130.908817 200.407895,128.913576 C198.238911,125.137846 196.883,119.924566 196.883,114.1602 C196.883,108.395834 198.238911,103.182554 200.407895,99.4068237 C201.55407,97.4115833 202.930213,95.8118502 204.450338,94.7157521 C205.994854,93.6020668 207.690803,93.0002 209.464,93.0002 Z M127.3467,98.8798 L128.014238,98.7532209 C131.908988,98.044836 133.877121,98.2832737 137.2687,100.9378 C139.8177,102.9328 139.0877,106.8618 137.2687,108.9598 C134.100382,112.615777 131.004648,111.968245 126.664534,112.107728 L126.3597,112.1188 C122.7427,112.2658 119.1227,112.3688 115.5027,112.4238 C114.5127,112.4398 113.5217,112.4358 112.5317,112.4418 C112.6367,121.6028 107.3547,128.5778 100.3987,133.8808 C95.9027,137.3098 90.2157,133.3538 88.6117,129.0858 C87.2847,125.5538 86.9997,121.2108 87.6877,117.3438 C87.9425333,115.918383 88.4738181,114.371126 89.2861757,113.051725 L89.5147,112.6978 L89.4777,112.1918 C89.4687,112.0668 89.4777,111.9458 89.4737,111.8208 C83.0162,111.4284 76.59596,110.78085 70.177988,109.967088 L68.0387,109.6898 C62.5607,108.9648 54.5157,108.7318 50.0827,105.1688 C49.9427,105.0548 49.9927,104.8058 50.1407,104.7268 C52.5776545,103.4143 55.0501442,103.488581 57.7756042,103.367584 L58.1667,103.3488 C61.1307,103.1958 64.08795,103.068112 67.0502625,102.966581 L70.0147,102.8738 C77.5967,102.6568 85.1857,102.2888 92.7607,101.8858 C94.0777,101.8158 95.3947,101.7328 96.7137,101.6518 C98.0927,101.0738 99.5587,100.7278 101.0067,100.6638 C102.2067,100.6098 103.3607,100.7758 104.4457,101.1208 C107.21245,100.90705 109.977513,100.674175 112.740466,100.423862 L115.5027,100.1678 C119.4007,99.7968 123.4987,99.6348 127.3467,98.8798 Z M175.2153,30.2196 C183.5483,26.1246 193.6803,26.0246 202.2623,29.4136 L202.831053,29.6439032 C211.498518,33.2408114 221.942601,41.5490409 219.6813,51.8976 C217.6123,61.3696 202.7553,59.7646 202.0023,50.8116 C197.2053,44.1656 186.4483,42.7076 179.6863,46.9336 C175.5853,49.4976 172.7703,53.8146 170.8463,58.1686 C169.2063,61.8766 168.8973,66.4556 166.3783,69.6856 C166.2963,69.7906 166.1323,69.8096 166.0133,69.7816 C158.5013,68.0436 158.3273,56.1066 159.6083,50.3166 C161.4693,41.8986 167.4423,34.0416 175.2153,30.2196 Z" id="Ink" fill="#000"/></g></g><g id="Beard" transform="translate(494.999934, 517.999659) scale(1 1)" fill="#000"><g id="Beard/None" stroke="none" stroke-width="1" fill="none" fill-rule="evenodd" fill-opacity="0"/></g><g id="Mask" transform="translate(400.000000, 480.000000) scale(1 1)" fill="#000"><g id="Mask/None" stroke="none" stroke-width="1" fill="none" fill-rule="evenodd" fill-opacity="0"/></g><g id="Accessories" transform="translate(419.000000, 421.000000) scale(1 1)" fill="#000"><g id="Accessories/Glasses 5" stroke="none" stroke-width="1" fill="none" fill-rule="evenodd"><path d="M367.0895,74.4323 C364.2615,82.1283 359.9575,90.1403 354.6945,96.6173 C333.4005,114.6493 312.7095,104.6653 302.2035,80.2263 C298.2115,62.9553 308.8105,44.3513 320.0415,31.6463 C336.2615,15.3893 362.7325,23.9213 370.1905,43.2473 C370.6435,45.7513 370.9175,48.2493 371.0485,50.7393 C370.8935,58.8303 369.9185,65.7453 367.0895,73.4323 M162.4095,58.9113 C190.4615,25.5443 242.9415,23.7603 241.6025,75.1153 C235.5765,140.1193 134.1055,124.1643 162.4095,58.9113 Z M375.9125,31.0763 C374.9295,29.4113 373.8385,27.8003 372.6475,26.2593 C372.2075,25.9973 371.9545,23.6733 370.3365,23.5013 C348.7095,-0.3577 310.7165,13.1793 296.9885,36.9533 C294.4815,39.9593 292.4365,43.4783 290.9285,47.1963 C277.4025,44.7153 261.6335,45.1973 249.0535,50.3063 C236.5795,17.7343 198.8145,14.8263 173.9275,28.7433 C158.4485,36.3563 148.4115,52.2993 133.3575,61.0573 C97.9685,63.6043 59.9875,55.6753 25.2375,64.5523 C-2.1685,70.2503 20.7415,84.1273 25.3375,74.8663 C58.1005,65.1863 96.9155,73.3663 130.9325,71.1853 C134.4695,77.1683 141.2525,82.0643 148.0125,81.8553 C155.3135,146.5763 249.6975,135.8443 252.9535,78.3113 C256.6465,72.4723 261.2395,66.8843 267.8135,63.2463 C270.3305,62.7253 272.7615,62.0483 274.9835,61.0003 C278.7815,60.4643 284.6335,62.0743 288.1275,65.2363 C300.0965,137.0523 369.0515,128.6883 381.3745,65.7743 C381.6195,65.5243 382.3045,64.5863 382.8305,63.0813 C387.0485,57.5043 397.3745,55.4313 395.7245,46.0163 C394.2555,36.5993 382.3635,36.7113 375.9125,31.0763 Z" id="Ink" fill="#000"/></g></g></g></svg>